# Blender v2.71 (sub 0) OBJ File: 'hextile-thick-template.blend'
# www.blender.org
mtllib hextile-dirt.mtl
o Cylinder_Cylinder.001
v 0.000000 -0.500000 0.000000
v 0.000000 0.000000 0.000000
v 0.000000 -0.500000 -1.000000
v 0.000000 0.000000 -1.000000
v 0.866025 -0.500000 -0.500000
v 0.866025 0.000000 -0.500000
v 0.866025 -0.500000 0.500000
v 0.866025 0.000000 0.500000
v -0.000000 -0.500000 1.000000
v -0.000000 0.000000 1.000000
v -0.866025 -0.500000 0.500000
v -0.866025 0.000000 0.500000
v -0.866025 -0.500000 -0.500000
v -0.866025 0.000000 -0.500000
v 0.000000 0.000000 -0.666667
v 0.000000 0.000000 -0.333333
v 0.288675 0.000000 -0.166667
v 0.577350 0.000000 -0.333333
v 0.577350 0.000000 -0.666667
v 0.288675 0.000000 -0.833333
v 0.288675 0.000000 0.166667
v 0.577350 0.000000 0.333333
v 0.866025 0.000000 0.166667
v 0.866025 0.000000 -0.166667
v -0.000000 0.000000 0.333333
v -0.000000 0.000000 0.666667
v 0.288675 0.000000 0.833333
v 0.577350 0.000000 0.666667
v -0.288675 0.000000 0.166667
v -0.577350 0.000000 0.333333
v -0.577350 0.000000 0.666667
v -0.288675 0.000000 0.833333
v -0.288675 0.000000 -0.166667
v -0.577350 0.000000 -0.333333
v -0.866025 0.000000 -0.166667
v -0.866025 0.000000 0.166667
v -0.288675 0.000000 -0.833333
v -0.577350 0.000000 -0.666667
v 0.288675 0.000000 -0.500000
v 0.577350 0.000000 0.000000
v 0.288675 0.000000 0.500000
v -0.288675 0.000000 0.500000
v -0.577350 0.000000 0.000000
v -0.288675 0.000000 -0.500000
v 0.433013 -0.500000 -0.250000
v 0.000000 -0.500000 -0.500000
v 0.433013 -0.500000 -0.750000
v 0.000000 0.000000 -0.166667
v 0.721688 0.000000 -0.416667
v 0.144338 0.000000 -0.916667
v 0.000000 -0.250000 -1.000000
v 0.866025 -0.250000 -0.500000
v 0.433013 -0.500000 0.250000
v 0.866025 -0.500000 0.000000
v 0.721688 0.000000 0.416667
v 0.866025 0.000000 -0.333333
v 0.866025 -0.250000 0.500000
v -0.000000 -0.500000 0.500000
v 0.433013 -0.500000 0.750000
v -0.000000 0.000000 0.833333
v 0.721688 0.000000 0.583333
v -0.000000 -0.250000 1.000000
v -0.433013 -0.500000 0.250000
v -0.433013 -0.500000 0.750000
v -0.721688 0.000000 0.416667
v -0.144338 0.000000 0.916667
v -0.866025 -0.250000 0.500000
v -0.433013 -0.500000 -0.250000
v -0.866025 -0.500000 0.000000
v -0.721688 0.000000 -0.416667
v -0.866025 0.000000 0.333333
v -0.866025 -0.250000 -0.500000
v -0.433013 -0.500000 -0.750000
v -0.721688 0.000000 -0.583333
v 0.000000 0.000000 -0.833333
v 0.000000 0.000000 -0.500000
v 0.144338 0.000000 -0.083333
v 0.433013 0.000000 -0.250000
v 0.721688 0.000000 -0.583333
v 0.433013 0.000000 -0.750000
v 0.144338 0.000000 0.083333
v 0.433013 0.000000 0.250000
v 0.866025 0.000000 0.333333
v 0.866025 0.000000 0.000000
v -0.000000 0.000000 0.166667
v -0.000000 0.000000 0.500000
v 0.144337 0.000000 0.916667
v 0.433013 0.000000 0.750000
v -0.144338 0.000000 0.083333
v -0.433013 0.000000 0.250000
v -0.721688 0.000000 0.583333
v -0.433013 0.000000 0.750000
v -0.144338 0.000000 -0.083333
v -0.433013 0.000000 -0.250000
v -0.866025 0.000000 -0.333333
v -0.866025 0.000000 0.000000
v -0.144338 0.000000 -0.916667
v -0.433013 0.000000 -0.750000
v 0.144338 0.000000 -0.750000
v 0.433013 0.000000 -0.583333
v 0.144338 0.000000 -0.416667
v 0.144338 0.000000 -0.583333
v 0.288675 0.000000 -0.666667
v 0.144338 0.000000 -0.250000
v 0.288675 0.000000 -0.333333
v 0.433013 0.000000 -0.416667
v 0.577350 0.000000 -0.500000
v 0.721688 0.000000 -0.250000
v 0.721688 0.000000 0.083333
v 0.433013 0.000000 -0.083333
v 0.577350 0.000000 -0.166667
v 0.721688 0.000000 -0.083333
v 0.288675 0.000000 0.000000
v 0.433013 0.000000 0.083333
v 0.577350 0.000000 0.166667
v 0.721688 0.000000 0.250000
v 0.577350 0.000000 0.500000
v 0.288675 0.000000 0.666667
v 0.288675 0.000000 0.333333
v 0.433013 0.000000 0.416667
v 0.433013 0.000000 0.583333
v 0.144338 0.000000 0.250000
v 0.144338 0.000000 0.416667
v 0.144338 0.000000 0.583333
v 0.144338 0.000000 0.750000
v -0.144338 0.000000 0.750000
v -0.433013 0.000000 0.583333
v -0.144338 0.000000 0.416667
v -0.144338 0.000000 0.583333
v -0.288675 0.000000 0.666667
v -0.144338 0.000000 0.250000
v -0.288675 0.000000 0.333333
v -0.433013 0.000000 0.416667
v -0.577350 0.000000 0.500000
v -0.721688 0.000000 0.250000
v -0.721688 0.000000 -0.083333
v -0.433013 0.000000 0.083333
v -0.577350 0.000000 0.166667
v -0.721688 0.000000 0.083333
v -0.288675 0.000000 0.000000
v -0.433013 0.000000 -0.083333
v -0.577350 0.000000 -0.166667
v -0.721688 0.000000 -0.250000
v -0.577350 0.000000 -0.500000
v -0.288675 0.000000 -0.666667
v -0.288675 0.000000 -0.333333
v -0.433013 0.000000 -0.416667
v -0.433013 0.000000 -0.583333
v -0.144338 0.000000 -0.250000
v -0.144338 0.000000 -0.416667
v -0.144338 0.000000 -0.583333
v -0.144338 0.000000 -0.750000
vt 0.079038 0.067964
vt 0.079038 0.086794
vt 0.107245 0.077379
vt 0.500000 0.501551
vt 0.582745 0.543351
vt 0.500000 0.585151
vt 0.985444 0.036019
vt 0.985444 0.062283
vt 0.957042 0.062283
vt 0.107245 0.058550
vt 0.582745 0.459751
vt 0.966509 0.114810
vt 0.957042 0.114810
vt 0.079038 0.049135
vt 0.500000 0.417951
vt 0.815030 0.088547
vt 0.815030 0.062283
vt 0.871834 0.062283
vt 0.050832 0.058550
vt 0.417255 0.459751
vt 0.758225 0.062283
vt 0.786627 0.062283
vt 0.758225 0.088547
vt 0.050832 0.077379
vt 0.417255 0.543351
vt 0.777159 0.009756
vt 0.786627 0.009756
vt 0.928639 0.062283
vt 0.928639 0.036019
vt 0.500000 0.835951
vt 0.582745 0.877751
vt 0.500000 0.919551
vt 0.500000 0.668751
vt 0.582745 0.710551
vt 0.500000 0.752351
vt 0.582745 0.794151
vt 0.665489 0.752351
vt 0.748234 0.794151
vt 0.665489 0.835951
vt 0.582745 0.626951
vt 0.665489 0.585151
vt 0.748234 0.626951
vt 0.665489 0.668751
vt 0.748234 0.710551
vt 0.830978 0.668751
vt 0.913723 0.710551
vt 0.830978 0.752351
vt 0.913723 0.626951
vt 0.748234 0.543351
vt 0.830978 0.585151
vt 0.830978 0.501551
vt 0.913723 0.459751
vt 0.913723 0.543351
vt 0.665489 0.501551
vt 0.665489 0.417951
vt 0.748234 0.376151
vt 0.748234 0.459751
vt 0.830978 0.417951
vt 0.830978 0.334351
vt 0.913723 0.292551
vt 0.913723 0.376151
vt 0.830978 0.250751
vt 0.665489 0.334351
vt 0.748234 0.292551
vt 0.665489 0.250751
vt 0.665489 0.167151
vt 0.748234 0.208951
vt 0.582745 0.376151
vt 0.500000 0.334351
vt 0.500000 0.250751
vt 0.582745 0.292551
vt 0.582745 0.208951
vt 0.500000 0.167151
vt 0.500000 0.083551
vt 0.582745 0.125351
vt 0.417255 0.125351
vt 0.417255 0.292551
vt 0.417255 0.208951
vt 0.334511 0.250751
vt 0.251766 0.208951
vt 0.334511 0.167151
vt 0.417255 0.376151
vt 0.334511 0.417951
vt 0.251766 0.376151
vt 0.334511 0.334351
vt 0.251766 0.292551
vt 0.169022 0.334351
vt 0.086277 0.292551
vt 0.169022 0.250751
vt 0.086277 0.376151
vt 0.251766 0.459751
vt 0.169022 0.417951
vt 0.169022 0.501551
vt 0.086277 0.543351
vt 0.086277 0.459751
vt 0.334511 0.501551
vt 0.334511 0.585151
vt 0.251766 0.626951
vt 0.251766 0.543351
vt 0.169022 0.585151
vt 0.169022 0.668751
vt 0.086277 0.710551
vt 0.086277 0.626951
vt 0.169022 0.752351
vt 0.334511 0.668751
vt 0.251766 0.710551
vt 0.334511 0.752351
vt 0.334511 0.835951
vt 0.251766 0.794151
vt 0.417255 0.626951
vt 0.417255 0.710551
vt 0.417255 0.794151
vt 0.417255 0.877751
vt 0.107245 0.096209
vt 0.135451 0.086794
vt 0.079038 0.105624
vt 0.135451 0.067964
vt 0.135451 0.049135
vt 0.107245 0.039720
vt 0.079038 0.030305
vt 0.050832 0.039720
vt 0.022625 0.049135
vt 0.022625 0.067964
vt 0.022625 0.086794
vt 0.050832 0.096209
vt 0.582745 0.961351
vt 0.500000 1.003151
vt 0.665489 0.919551
vt 0.748234 0.877751
vt 0.830978 0.835951
vt 0.913723 0.794151
vt 0.996467 0.752351
vt 0.996467 0.668751
vt 0.996467 0.585151
vt 0.996467 0.501551
vt 0.996467 0.417951
vt 0.996467 0.334351
vt 0.996467 0.250751
vt 0.913723 0.208951
vt 0.830978 0.167151
vt 0.748234 0.125351
vt 0.665489 0.083551
vt 0.582745 0.041751
vt 0.500000 -0.000049
vt 0.417255 0.041751
vt 0.334511 0.083551
vt 0.251766 0.125351
vt 0.169022 0.167151
vt 0.086277 0.208951
vt 0.003532 0.250751
vt 0.003532 0.334351
vt 0.003532 0.417951
vt 0.003532 0.501551
vt 0.003532 0.585151
vt 0.003532 0.668751
vt 0.003532 0.752351
vt 0.086277 0.794151
vt 0.169022 0.835951
vt 0.251766 0.877751
vt 0.334511 0.919551
vt 0.417255 0.961351
vt 0.928639 0.009755
vt 0.938107 0.009755
vt 0.966509 0.009755
vt 0.957042 0.009755
vt 0.975977 0.009755
vt 0.985444 0.009755
vt 0.985444 0.088547
vt 0.947574 0.009755
vt 0.985444 0.114810
vt 0.975977 0.114810
vt 0.938107 0.114810
vt 0.928639 0.114811
vt 0.928639 0.088547
vt 0.947574 0.114810
vt 0.909704 0.114811
vt 0.871835 0.114811
vt 0.890769 0.114811
vt 0.815030 0.114811
vt 0.805562 0.114811
vt 0.833965 0.114811
vt 0.852899 0.114811
vt 0.777160 0.114811
vt 0.786627 0.114811
vt 0.758225 0.114811
vt 0.767692 0.114811
vt 0.758224 0.036019
vt 0.758224 0.009756
vt 0.767692 0.009756
vt 0.796095 0.114811
vt 0.805562 0.009756
vt 0.815029 0.009756
vt 0.815030 0.036019
vt 0.796094 0.009756
vt 0.833964 0.009756
vt 0.909704 0.009755
vt 0.852899 0.009756
vt 0.871834 0.009756
vt 0.890769 0.009755
vn 0.000000 -1.000000 0.000000
vn 0.000000 1.000000 0.000000
vn 0.500000 0.000000 -0.866000
vn 1.000000 0.000000 0.000000
vn 0.500000 0.000000 0.866000
vn -0.500000 0.000000 0.866000
vn -1.000000 0.000000 0.000000
vn -0.500000 0.000000 -0.866000
usemtl Material
s off
f 1/1/1 46/2/1 45/3/1
f 2/4/2 77/5/2 48/6/2
f 52/7/3 5/8/3 47/9/3
f 1/1/1 45/3/1 53/10/1
f 2/4/2 81/11/2 77/5/2
f 54/9/4 24/12/4 84/13/4
f 1/1/1 53/10/1 58/14/1
f 2/4/2 85/15/2 81/11/2
f 62/16/5 9/17/5 59/18/5
f 1/1/1 58/14/1 63/19/1
f 2/4/2 89/20/2 85/15/2
f 11/21/6 64/22/6 67/23/6
f 1/1/1 63/19/1 68/24/1
f 2/4/2 93/25/2 89/20/2
f 69/22/7 36/26/7 96/27/7
f 1/1/1 68/24/1 46/2/1
f 2/4/2 48/6/2 93/25/2
f 3/28/8 73/18/8 51/29/8
f 15/30/2 99/31/2 75/32/2
f 16/33/2 101/34/2 76/35/2
f 15/30/2 102/36/2 99/31/2
f 39/37/2 100/38/2 103/39/2
f 16/33/2 104/40/2 101/34/2
f 17/41/2 78/42/2 105/43/2
f 39/37/2 106/44/2 100/38/2
f 18/45/2 49/46/2 107/47/2
f 18/45/2 108/48/2 49/46/2
f 17/41/2 110/49/2 78/42/2
f 18/45/2 111/50/2 108/48/2
f 40/51/2 109/52/2 112/53/2
f 17/41/2 113/54/2 110/49/2
f 21/55/2 82/56/2 114/57/2
f 40/51/2 115/58/2 109/52/2
f 22/59/2 55/60/2 116/61/2
f 22/59/2 117/62/2 55/60/2
f 21/55/2 119/63/2 82/56/2
f 22/59/2 120/64/2 117/62/2
f 41/65/2 118/66/2 121/67/2
f 21/55/2 122/68/2 119/63/2
f 25/69/2 86/70/2 123/71/2
f 41/65/2 124/72/2 118/66/2
f 26/73/2 60/74/2 125/75/2
f 26/73/2 126/76/2 60/74/2
f 25/69/2 128/77/2 86/70/2
f 26/73/2 129/78/2 126/76/2
f 42/79/2 127/80/2 130/81/2
f 25/69/2 131/82/2 128/77/2
f 29/83/2 90/84/2 132/85/2
f 42/79/2 133/86/2 127/80/2
f 30/87/2 65/88/2 134/89/2
f 30/87/2 135/90/2 65/88/2
f 29/83/2 137/91/2 90/84/2
f 30/87/2 138/92/2 135/90/2
f 43/93/2 136/94/2 139/95/2
f 29/83/2 140/96/2 137/91/2
f 33/97/2 94/98/2 141/99/2
f 43/93/2 142/100/2 136/94/2
f 34/101/2 70/102/2 143/103/2
f 34/101/2 144/104/2 70/102/2
f 33/97/2 146/105/2 94/98/2
f 34/101/2 147/106/2 144/104/2
f 44/107/2 145/108/2 148/109/2
f 33/97/2 149/110/2 146/105/2
f 16/33/2 76/35/2 150/111/2
f 44/107/2 151/112/2 145/108/2
f 15/30/2 75/32/2 152/113/2
f 45/3/1 47/114/1 5/115/1
f 45/3/1 46/2/1 47/114/1
f 46/2/1 3/116/1 47/114/1
f 48/6/2 104/40/2 16/33/2
f 48/6/2 77/5/2 104/40/2
f 77/5/2 17/41/2 104/40/2
f 53/10/1 54/117/1 7/118/1
f 53/10/1 45/3/1 54/117/1
f 45/3/1 5/115/1 54/117/1
f 77/5/2 113/54/2 17/41/2
f 77/5/2 81/11/2 113/54/2
f 81/11/2 21/55/2 113/54/2
f 58/14/1 59/119/1 9/120/1
f 58/14/1 53/10/1 59/119/1
f 53/10/1 7/118/1 59/119/1
f 81/11/2 122/68/2 21/55/2
f 81/11/2 85/15/2 122/68/2
f 85/15/2 25/69/2 122/68/2
f 63/19/1 64/121/1 11/122/1
f 63/19/1 58/14/1 64/121/1
f 58/14/1 9/120/1 64/121/1
f 85/15/2 131/82/2 25/69/2
f 85/15/2 89/20/2 131/82/2
f 89/20/2 29/83/2 131/82/2
f 68/24/1 69/123/1 13/124/1
f 68/24/1 63/19/1 69/123/1
f 63/19/1 11/122/1 69/123/1
f 89/20/2 140/96/2 29/83/2
f 89/20/2 93/25/2 140/96/2
f 93/25/2 33/97/2 140/96/2
f 46/2/1 73/125/1 3/116/1
f 46/2/1 68/24/1 73/125/1
f 68/24/1 13/124/1 73/125/1
f 93/25/2 149/110/2 33/97/2
f 93/25/2 48/6/2 149/110/2
f 48/6/2 16/33/2 149/110/2
f 75/32/2 50/126/2 4/127/2
f 75/32/2 99/31/2 50/126/2
f 99/31/2 20/128/2 50/126/2
f 76/35/2 102/36/2 15/30/2
f 76/35/2 101/34/2 102/36/2
f 101/34/2 39/37/2 102/36/2
f 99/31/2 103/39/2 20/128/2
f 99/31/2 102/36/2 103/39/2
f 102/36/2 39/37/2 103/39/2
f 103/39/2 80/129/2 20/128/2
f 103/39/2 100/38/2 80/129/2
f 100/38/2 19/130/2 80/129/2
f 101/34/2 105/43/2 39/37/2
f 101/34/2 104/40/2 105/43/2
f 104/40/2 17/41/2 105/43/2
f 105/43/2 106/44/2 39/37/2
f 105/43/2 78/42/2 106/44/2
f 78/42/2 18/45/2 106/44/2
f 100/38/2 107/47/2 19/130/2
f 100/38/2 106/44/2 107/47/2
f 106/44/2 18/45/2 107/47/2
f 107/47/2 79/131/2 19/130/2
f 107/47/2 49/46/2 79/131/2
f 49/46/2 6/132/2 79/131/2
f 49/46/2 56/133/2 6/132/2
f 49/46/2 108/48/2 56/133/2
f 108/48/2 24/134/2 56/133/2
f 78/42/2 111/50/2 18/45/2
f 78/42/2 110/49/2 111/50/2
f 110/49/2 40/51/2 111/50/2
f 108/48/2 112/53/2 24/134/2
f 108/48/2 111/50/2 112/53/2
f 111/50/2 40/51/2 112/53/2
f 112/53/2 84/135/2 24/134/2
f 112/53/2 109/52/2 84/135/2
f 109/52/2 23/136/2 84/135/2
f 110/49/2 114/57/2 40/51/2
f 110/49/2 113/54/2 114/57/2
f 113/54/2 21/55/2 114/57/2
f 114/57/2 115/58/2 40/51/2
f 114/57/2 82/56/2 115/58/2
f 82/56/2 22/59/2 115/58/2
f 109/52/2 116/61/2 23/136/2
f 109/52/2 115/58/2 116/61/2
f 115/58/2 22/59/2 116/61/2
f 116/61/2 83/137/2 23/136/2
f 116/61/2 55/60/2 83/137/2
f 55/60/2 8/138/2 83/137/2
f 55/60/2 61/139/2 8/138/2
f 55/60/2 117/62/2 61/139/2
f 117/62/2 28/140/2 61/139/2
f 82/56/2 120/64/2 22/59/2
f 82/56/2 119/63/2 120/64/2
f 119/63/2 41/65/2 120/64/2
f 117/62/2 121/67/2 28/140/2
f 117/62/2 120/64/2 121/67/2
f 120/64/2 41/65/2 121/67/2
f 121/67/2 88/141/2 28/140/2
f 121/67/2 118/66/2 88/141/2
f 118/66/2 27/142/2 88/141/2
f 119/63/2 123/71/2 41/65/2
f 119/63/2 122/68/2 123/71/2
f 122/68/2 25/69/2 123/71/2
f 123/71/2 124/72/2 41/65/2
f 123/71/2 86/70/2 124/72/2
f 86/70/2 26/73/2 124/72/2
f 118/66/2 125/75/2 27/142/2
f 118/66/2 124/72/2 125/75/2
f 124/72/2 26/73/2 125/75/2
f 125/75/2 87/143/2 27/142/2
f 125/75/2 60/74/2 87/143/2
f 60/74/2 10/144/2 87/143/2
f 60/74/2 66/145/2 10/144/2
f 60/74/2 126/76/2 66/145/2
f 126/76/2 32/146/2 66/145/2
f 86/70/2 129/78/2 26/73/2
f 86/70/2 128/77/2 129/78/2
f 128/77/2 42/79/2 129/78/2
f 126/76/2 130/81/2 32/146/2
f 126/76/2 129/78/2 130/81/2
f 129/78/2 42/79/2 130/81/2
f 130/81/2 92/147/2 32/146/2
f 130/81/2 127/80/2 92/147/2
f 127/80/2 31/148/2 92/147/2
f 128/77/2 132/85/2 42/79/2
f 128/77/2 131/82/2 132/85/2
f 131/82/2 29/83/2 132/85/2
f 132/85/2 133/86/2 42/79/2
f 132/85/2 90/84/2 133/86/2
f 90/84/2 30/87/2 133/86/2
f 127/80/2 134/89/2 31/148/2
f 127/80/2 133/86/2 134/89/2
f 133/86/2 30/87/2 134/89/2
f 134/89/2 91/149/2 31/148/2
f 134/89/2 65/88/2 91/149/2
f 65/88/2 12/150/2 91/149/2
f 65/88/2 71/151/2 12/150/2
f 65/88/2 135/90/2 71/151/2
f 135/90/2 36/152/2 71/151/2
f 90/84/2 138/92/2 30/87/2
f 90/84/2 137/91/2 138/92/2
f 137/91/2 43/93/2 138/92/2
f 135/90/2 139/95/2 36/152/2
f 135/90/2 138/92/2 139/95/2
f 138/92/2 43/93/2 139/95/2
f 139/95/2 96/153/2 36/152/2
f 139/95/2 136/94/2 96/153/2
f 136/94/2 35/154/2 96/153/2
f 137/91/2 141/99/2 43/93/2
f 137/91/2 140/96/2 141/99/2
f 140/96/2 33/97/2 141/99/2
f 141/99/2 142/100/2 43/93/2
f 141/99/2 94/98/2 142/100/2
f 94/98/2 34/101/2 142/100/2
f 136/94/2 143/103/2 35/154/2
f 136/94/2 142/100/2 143/103/2
f 142/100/2 34/101/2 143/103/2
f 143/103/2 95/155/2 35/154/2
f 143/103/2 70/102/2 95/155/2
f 70/102/2 14/156/2 95/155/2
f 70/102/2 74/157/2 14/156/2
f 70/102/2 144/104/2 74/157/2
f 144/104/2 38/158/2 74/157/2
f 94/98/2 147/106/2 34/101/2
f 94/98/2 146/105/2 147/106/2
f 146/105/2 44/107/2 147/106/2
f 144/104/2 148/109/2 38/158/2
f 144/104/2 147/106/2 148/109/2
f 147/106/2 44/107/2 148/109/2
f 148/109/2 98/159/2 38/158/2
f 148/109/2 145/108/2 98/159/2
f 145/108/2 37/160/2 98/159/2
f 146/105/2 150/111/2 44/107/2
f 146/105/2 149/110/2 150/111/2
f 149/110/2 16/33/2 150/111/2
f 150/111/2 151/112/2 44/107/2
f 150/111/2 76/35/2 151/112/2
f 76/35/2 15/30/2 151/112/2
f 145/108/2 152/113/2 37/160/2
f 145/108/2 151/112/2 152/113/2
f 151/112/2 15/30/2 152/113/2
f 152/113/2 97/161/2 37/160/2
f 152/113/2 75/32/2 97/161/2
f 75/32/2 4/127/2 97/161/2
f 47/9/3 3/28/3 51/29/3
f 51/29/3 4/162/3 50/163/3
f 19/164/3 47/9/3 80/165/3
f 79/166/3 6/167/3 52/7/3
f 54/9/4 5/8/4 52/168/4
f 50/163/3 20/169/3 51/29/3
f 20/169/3 47/9/3 51/29/3
f 19/164/3 79/166/3 52/7/3
f 47/9/3 20/169/3 80/165/3
f 52/168/4 6/170/4 56/171/4
f 19/164/3 52/7/3 47/9/3
f 83/172/4 8/173/4 57/174/4
f 57/174/4 7/28/4 54/9/4
f 56/171/4 24/12/4 52/168/4
f 23/175/4 54/9/4 84/13/4
f 23/175/4 83/172/4 57/174/4
f 59/18/5 7/28/5 57/174/5
f 24/12/4 54/9/4 52/168/4
f 57/174/5 8/173/5 61/176/5
f 23/175/4 57/174/4 54/9/4
f 88/177/5 59/18/5 28/178/5
f 62/16/6 10/179/6 66/180/6
f 87/181/5 10/179/5 62/16/5
f 64/22/6 9/17/6 62/16/6
f 61/176/5 28/178/5 57/174/5
f 28/178/5 59/18/5 57/174/5
f 59/18/5 27/182/5 62/16/5
f 27/182/5 87/181/5 62/16/5
f 59/18/5 88/177/5 27/182/5
f 31/183/6 64/22/6 92/184/6
f 12/185/6 67/23/6 91/186/6
f 69/22/7 11/21/7 67/187/7
f 67/187/7 12/188/7 71/189/7
f 62/16/6 66/180/6 32/190/6
f 64/22/6 32/190/6 92/184/6
f 64/22/6 62/16/6 32/190/6
f 67/23/6 31/183/6 91/186/6
f 67/23/6 64/22/6 31/183/6
f 95/191/7 14/192/7 72/193/7
f 72/193/7 13/17/7 69/22/7
f 71/189/7 36/26/7 67/187/7
f 35/194/7 69/22/7 96/27/7
f 35/194/7 95/191/7 72/193/7
f 73/18/8 13/17/8 72/193/8
f 36/26/7 69/22/7 67/187/7
f 72/193/8 14/192/8 74/195/8
f 35/194/7 72/193/7 69/22/7
f 4/162/8 51/29/8 97/196/8
f 72/193/8 38/197/8 73/18/8
f 38/197/8 98/198/8 73/18/8
f 51/29/8 37/199/8 97/196/8
f 73/18/8 98/198/8 37/199/8
f 72/193/8 74/195/8 38/197/8
f 73/18/8 37/199/8 51/29/8
